<svg xmlns="http://www.w3.org/2000/svg" xmlns:xlink="http://www.w3.org/1999/xlink" width="25" height="25" viewBox="0 0 25 25">
  <defs>
    <clipPath id="clip-path">
      <rect id="Rectangle_14" data-name="Rectangle 14" width="25" height="25" transform="translate(0.081 -0.43)" fill="#c3b1ff"/>
    </clipPath>
  </defs>
  <g id="Group_31" data-name="Group 31" transform="translate(-0.081 0.43)">
    <g id="Group_30" data-name="Group 30" transform="translate(0 0)" clip-path="url(#clip-path)">
      <path id="Path_18" data-name="Path 18" d="M0,12.36A12.363,12.363,0,1,1,12.4,24.725,12.361,12.361,0,0,1,0,12.36m12.163,9.593a10.809,10.809,0,0,0,1.647-.111,9.3,9.3,0,0,0,2.731-.849,9.013,9.013,0,0,0,1.683-1.066A13.479,13.479,0,0,0,20.2,17.884a9.5,9.5,0,0,0,1.7-6.424,9.08,9.08,0,0,0-.931-3.308A9.489,9.489,0,0,0,15.49,3.3a9.338,9.338,0,0,0-4.176-.468,9.186,9.186,0,0,0-2.527.634A9.033,9.033,0,0,0,6.66,4.679a12.059,12.059,0,0,0-2.01,2A8.2,8.2,0,0,0,3.464,8.787a9.542,9.542,0,0,0-.615,4.77,9.552,9.552,0,0,0,3.31,6.115,9.4,9.4,0,0,0,6,2.282" transform="translate(-0.296 -0.139)" fill="#c3b1ff"/>
      <path id="Path_19" data-name="Path 19" d="M61.417,39.184c.191.141.384.274.565.421a2.324,2.324,0,0,1,.84,1.21,2.19,2.19,0,0,1-1.307,2.677,3.394,3.394,0,0,1-1.5.232,3.13,3.13,0,0,1-1.431-.362,1.964,1.964,0,0,1-1.037-1.593,2.5,2.5,0,0,1,.281-1.517,2.672,2.672,0,0,1,.919-.928l.152-.1c-.084-.069-.164-.133-.242-.2a2.4,2.4,0,0,1-.844-1.35,1.943,1.943,0,0,1,1.277-2.365,3.09,3.09,0,0,1,2.516.109,1.838,1.838,0,0,1,1.065,1.828,2.129,2.129,0,0,1-1,1.765c-.085.059-.172.115-.254.17M60.212,42.32c.1-.01.208-.015.31-.032a.866.866,0,0,0,.665-.438A1.009,1.009,0,0,0,61,40.657a3.647,3.647,0,0,0-.816-.61.1.1,0,0,0-.083.006,4.48,4.48,0,0,0-.392.255,1.3,1.3,0,0,0-.572,1.009.882.882,0,0,0,.359.8,1.261,1.261,0,0,0,.719.2m.006-5.82,0,.016-.148.012a.726.726,0,0,0-.656.558.941.941,0,0,0,.217.852,2.117,2.117,0,0,0,.565.424.09.09,0,0,0,.077-.005c.134-.085.271-.166.4-.263a.969.969,0,0,0,.383-.877.68.68,0,0,0-.447-.622,2.608,2.608,0,0,0-.383-.094" transform="translate(-47.51 -28.942)" fill="#c3b1ff"/>
      <path id="Path_20" data-name="Path 20" d="M33.723,44.222H32.03V37.976l-1.316,1.2-.842-1.164c.025-.024.049-.047.073-.069q1.171-1.033,2.343-2.064a.159.159,0,0,1,.095-.04c.432,0,.864,0,1.3,0,.013,0,.025,0,.044,0Z" transform="translate(-24.811 -29.553)" fill="#c3b1ff"/>
      <path id="Path_21" data-name="Path 21" d="M90.78,47.894v1.751H89.661V47.9H87.937v-1.13h.1c.51,0,1.02,0,1.53,0,.082,0,.1-.024.1-.1,0-.526,0-1.051,0-1.577V45h1.113v1.772h1.732v1.127Z" transform="translate(-72.463 -37.065)" fill="#c3b1ff"/>
      <path id="Path_22" data-name="Path 22" d="M60.638,92.493c-.306,0-.605,0-.9,0-.023,0-.053-.035-.067-.061q-.444-.851-.884-1.7l-.06-.114v1.875H58.1V89.821h.211c.216,0,.432,0,.648,0a.113.113,0,0,1,.119.072q.44.848.885,1.693c.014.026.028.052.046.084V89.826h.623Z" transform="translate(-47.981 -73.851)" fill="#c3b1ff"/>
      <path id="Path_23" data-name="Path 23" d="M43.467,91a4.743,4.743,0,0,1-.1.539,1.025,1.025,0,0,1-.833.752,1.807,1.807,0,0,1-.8-.011,1.048,1.048,0,0,1-.8-.77,1.989,1.989,0,0,1-.011-1.079,1.087,1.087,0,0,1,.989-.841,1.916,1.916,0,0,1,.689.036,1.062,1.062,0,0,1,.82.91c.026.137.032.278.052.464m-.754-.047a4.254,4.254,0,0,0-.091-.461.443.443,0,0,0-.446-.324.453.453,0,0,0-.477.292,1.327,1.327,0,0,0,0,.982.451.451,0,0,0,.473.287.44.44,0,0,0,.447-.311,4.226,4.226,0,0,0,.094-.464" transform="translate(-33.818 -73.655)" fill="#c3b1ff"/>
      <path id="Path_24" data-name="Path 24" d="M87.7,92.489h-.728V92.4c0-.289,0-.577,0-.866a.281.281,0,0,0-.032-.125q-.4-.755-.8-1.508c-.012-.023-.023-.046-.038-.077.025,0,.044-.007.063-.007.216,0,.432,0,.648,0a.092.092,0,0,1,.1.064c.126.28.256.558.384.836.011.025.025.049.044.088l.276-.592c.054-.115.106-.232.162-.346a.089.089,0,0,1,.059-.047c.242,0,.483,0,.74,0-.018.037-.031.064-.045.09q-.4.738-.795,1.476a.3.3,0,0,0-.034.132c0,.294,0,.588,0,.882v.088" transform="translate(-70.954 -73.851)" fill="#c3b1ff"/>
      <path id="Path_25" data-name="Path 25" d="M75.533,92.51V89.848h.717v2.088h1.026v.574Z" transform="translate(-62.284 -73.875)" fill="#c3b1ff"/>
    </g>
  </g>
</svg>
