<svg id="Group_23" data-name="Group 23" xmlns="http://www.w3.org/2000/svg" xmlns:xlink="http://www.w3.org/1999/xlink" width="24.725" height="24.74" viewBox="0 0 24.725 24.74">
  <defs>
    <clipPath id="clip-path">
      <rect id="Rectangle_10" data-name="Rectangle 10" width="24.725" height="24.74" transform="translate(0 0)" fill="#c3b1ff"/>
    </clipPath>
  </defs>
  <g id="Group_22" data-name="Group 22" transform="translate(0 0)" clip-path="url(#clip-path)">
    <path id="Path_12" data-name="Path 12" d="M0,12.374A12.362,12.362,0,1,1,12.344,24.74,12.369,12.369,0,0,1,0,12.374M13.42,15.785c0-1.037,0-2.073,0-3.11,0-.207.047-.288.27-.281.459.016.919,0,1.378.007.169,0,.234-.054.251-.229.057-.617.131-1.233.2-1.849.033-.292.012-.321-.3-.322-.523,0-1.045,0-1.568,0-.126,0-.238-.008-.231-.182.016-.423.007-.847.044-1.268.033-.381.182-.513.575-.539.422-.028.845-.037,1.268-.041.16,0,.224-.051.222-.218-.006-.649,0-1.3,0-1.947,0-.145-.044-.215-.2-.211-.827.021-1.659-.008-2.482.065a2.344,2.344,0,0,0-2.224,2.332c-.031.494-.039.989-.051,1.484-.014.584.091.519-.54.525-.207,0-.414,0-.622,0-.152,0-.236.056-.235.221,0,.658,0,1.316,0,1.974,0,.148.064.208.214.2.279-.007.56.016.838-.007s.351.061.349.341c-.012,2.037,0,4.074-.011,6.112,0,.227.055.322.3.317q1.135-.02,2.271,0c.229,0,.288-.076.286-.3-.01-1.028,0-2.055,0-3.083" transform="translate(0 0)" fill="#c3b1ff"/>
  </g>
</svg>
