<svg id="Group_27" data-name="Group 27" xmlns="http://www.w3.org/2000/svg" xmlns:xlink="http://www.w3.org/1999/xlink" width="24.725" height="24.722" viewBox="0 0 24.725 24.722">
  <defs>
    <clipPath id="clip-path">
      <rect id="Rectangle_12" data-name="Rectangle 12" width="24.725" height="24.722" fill="#c3b1ff"/>
    </clipPath>
  </defs>
  <g id="Group_26" data-name="Group 26" clip-path="url(#clip-path)">
    <path id="Path_14" data-name="Path 14" d="M24.725,12.367A12.362,12.362,0,1,1,12.419,0,12.354,12.354,0,0,1,24.725,12.367M4.887,12.345H4.852c.019.981.036,1.962.057,2.943a6.058,6.058,0,0,0,.206,1.519A3.8,3.8,0,0,0,7.359,19.4a5.488,5.488,0,0,0,2.08.391q1.238.025,2.476.023c1.107,0,2.214,0,3.32-.027a7.448,7.448,0,0,0,1.266-.136,3.874,3.874,0,0,0,3.159-3.161,10.411,10.411,0,0,0,.153-2q.014-2.145,0-4.29a10.087,10.087,0,0,0-.156-2.008,3.9,3.9,0,0,0-1.642-2.533,4.448,4.448,0,0,0-2.261-.723c-.618-.041-1.239-.063-1.858-.062-1.491,0-2.982.019-4.473.035a5.881,5.881,0,0,0-1.355.16A3.834,3.834,0,0,0,5.126,7.85,7.416,7.416,0,0,0,4.89,9.87c-.014.825,0,1.65,0,2.476" transform="translate(0 0)" fill="#c3b1ff"/>
    <path id="Path_15" data-name="Path 15" d="M32.081,38.355c.012-.89.017-1.78.037-2.669a4.992,4.992,0,0,1,.257-1.7,2.449,2.449,0,0,1,1.888-1.593,6.215,6.215,0,0,1,1.208-.135c1.719-.017,3.438-.014,5.157-.011a7.865,7.865,0,0,1,1.464.116,2.552,2.552,0,0,1,2.139,2.165,7.806,7.806,0,0,1,.111,1.212q.018,2.624,0,5.248a5.373,5.373,0,0,1-.185,1.534,2.5,2.5,0,0,1-2.09,1.842,7.027,7.027,0,0,1-1.2.112q-2.43.022-4.861.009a12.72,12.72,0,0,1-1.343-.074,2.645,2.645,0,0,1-2.037-1.159,2.911,2.911,0,0,1-.443-1.291,25.333,25.333,0,0,1-.094-2.848c0-.251,0-.5,0-.753h-.01m2.314,0a3.837,3.837,0,1,0,3.824-3.83,3.833,3.833,0,0,0-3.824,3.83m7.849-3.088a.9.9,0,1,0-.071-1.789.9.9,0,0,0,.071,1.789" transform="translate(-25.882 -26.011)" fill="#c3b1ff"/>
    <path id="Path_16" data-name="Path 16" d="M50.96,53.468a2.5,2.5,0,1,1,2.507,2.494,2.509,2.509,0,0,1-2.507-2.494" transform="translate(-41.113 -41.116)" fill="#c3b1ff"/>
  </g>
</svg>
